<mxfile host="app.diagrams.net" modified="2024-04-19T10:39:32.840Z" agent="Mozilla/5.0 (Windows NT 10.0; Win64; x64) AppleWebKit/537.36 (KHTML, like Gecko) Chrome/124.0.0.0 Safari/537.36" etag="gQCubWrL8kVKjGaDMjMq" version="24.2.3" type="github">
  <diagram name="Page-1" id="sEi6zrj-x4Gcng2DzlMM">
    <mxGraphModel dx="614" dy="265" grid="0" gridSize="10" guides="1" tooltips="1" connect="1" arrows="1" fold="1" page="1" pageScale="1" pageWidth="827" pageHeight="1169" math="0" shadow="0">
      <root>
        <mxCell id="0" />
        <mxCell id="1" parent="0" />
        <mxCell id="D8IytL0E8ol-18z53MpY-1" value="" style="rounded=0;whiteSpace=wrap;html=1;" vertex="1" parent="1">
          <mxGeometry x="140" y="160" width="310" height="200" as="geometry" />
        </mxCell>
        <mxCell id="D8IytL0E8ol-18z53MpY-2" value="PCB" style="text;html=1;align=center;verticalAlign=middle;whiteSpace=wrap;rounded=0;" vertex="1" parent="1">
          <mxGeometry x="265" y="170" width="60" height="30" as="geometry" />
        </mxCell>
        <mxCell id="D8IytL0E8ol-18z53MpY-3" value="Charging Circuit" style="rounded=0;whiteSpace=wrap;html=1;" vertex="1" parent="1">
          <mxGeometry x="170" y="200" width="120" height="60" as="geometry" />
        </mxCell>
        <mxCell id="D8IytL0E8ol-18z53MpY-4" value="Driver Circuit" style="rounded=0;whiteSpace=wrap;html=1;" vertex="1" parent="1">
          <mxGeometry x="170" y="280" width="120" height="60" as="geometry" />
        </mxCell>
        <mxCell id="D8IytL0E8ol-18z53MpY-5" value="Analoge voltage output circuit" style="rounded=0;whiteSpace=wrap;html=1;" vertex="1" parent="1">
          <mxGeometry x="314" y="230" width="100" height="60" as="geometry" />
        </mxCell>
      </root>
    </mxGraphModel>
  </diagram>
</mxfile>
